<?xml version="1.0" encoding="UTF-8" standalone="no"?>
<!-- Created with Inkscape (http://www.inkscape.org/) -->

<svg
   width="90.299232mm"
   height="90.110535mm"
   viewBox="0 0 90.299232 90.110535"
   version="1.1"
   id="svg1"
   xml:space="preserve"><defs
     id="defs1" /><g
     id="layer1"
     transform="translate(-30.276858,-104.84734)"><ellipse
       style="fill:#000000;fill-opacity:1;stroke-width:0.213458"
       id="path2"
       cx="75.426476"
       cy="149.9026"
       rx="45.149616"
       ry="45.055267" /></g><g
     id="layer2"
     transform="translate(-30.276858,-104.84734)"><path
       style="fill:#ffffff;fill-opacity:1"
       d="m 76.653785,185.4917 c 1.2056,-0.41231 2.244,-1.18296 2.88693,-2.14256 0.18032,-0.26914 0.32985,-0.49693 0.3323,-0.50622 0.002,-0.009 0.45902,-0.11516 1.01462,-0.23528 2.41787,-0.52276 4.67594,-1.3086 6.94296,-2.41625 3.14989,-1.53902 5.49769,-3.23236 8.08715,-5.83281 2.40915,-2.41937 4.091455,-4.71254 5.657985,-7.71245 0.52728,-1.00976 1.5699,-3.38219 1.51187,-3.44022 -0.0182,-0.0182 -0.14073,0.22453 -0.27228,0.5394 -0.13156,0.31487 -0.49723,1.0915 -0.81261,1.72585 -3.738455,7.51947 -10.427495,13.40953 -18.320785,16.13243 -1.00504,0.3467 -3.60736,1.06374 -3.66206,1.00903 -0.0127,-0.0126 0.0566,-0.20288 0.15385,-0.42276 0.0973,-0.21987 0.2248,-0.63533 0.28343,-0.92325 l 0.10659,-0.52348 1.13576,-0.3023 c 5.09199,-1.35531 9.63865,-3.82991 13.28543,-7.23083 6.927735,-6.46066 10.050125,-15.26818 8.711245,-24.57229 -0.0951,-0.66114 -0.24532,-1.48029 -0.33374,-1.82033 -0.0884,-0.34004 -0.14099,-0.4849 -0.11682,-0.32191 0.0242,0.16298 0.11711,0.77258 0.20654,1.35466 0.57006,3.71017 0.37356,7.68424 -0.56098,11.34534 -0.99438,3.89557 -2.7336,7.38979 -5.267765,10.58333 -0.90161,1.1362 -3.34922,3.54887 -4.49955,4.4353 -1.93727,1.49285 -3.62542,2.50154 -5.37793,3.21338 -1.20708,0.49029 -3.3912,1.23634 -4.572,1.56168 -1.24046,0.34179 -1.397,0.37361 -1.397,0.28397 0,-0.0851 0.79642,-0.4358 2.62467,-1.15563 3.10268,-1.22161 6.19795,-3.07963 8.67833,-5.20937 1.01496,-0.87148 2.89379,-2.80875 3.69499,-3.80993 3.14514,-3.93012 5.171355,-8.52374 5.917875,-13.4164 0.25552,-1.67468 0.31934,-4.79448 0.13235,-6.46986 -0.57762,-5.17519 -2.55218,-9.85676 -5.948765,-14.10414 -0.93799,-1.17295 -2.85747,-3.10088 -3.97454,-3.99205 -3.75612,-2.99652 -8.03815,-4.76589 -12.77102,-5.27707 -1.07701,-0.11633 -4.00903,-0.11647 -5.09451,-2.4e-4 -8.440033,0.90368 -15.756675,5.7341 -19.298345,12.74069 -1.541466,3.04953 -2.246375,6.06239 -2.248343,9.60967 -0.0013,2.34205 0.186746,3.84064 0.770246,6.13833 1.416658,5.57849 4.937245,10.08875 9.832999,12.59715 0.902793,0.46256 2.439216,1.10959 2.497173,1.05164 0.01794,-0.0179 -0.243846,-0.13931 -0.581745,-0.26971 -0.974025,-0.37588 -2.512135,-1.18398 -3.474715,-1.82555 -4.629831,-3.08584 -7.612157,-8.06659 -8.540186,-14.26286 -0.07368,-0.49197 -0.114126,-1.55709 -0.114126,-3.00567 0,-2.3497 0.05238,-2.92065 0.438531,-4.78036 1.46301,-7.04581 6.150574,-12.81116 12.731098,-15.65827 2.622616,-1.13469 5.344539,-1.82807 8.208703,-2.09106 1.3303,-0.12216 4.21891,-0.0505 5.41867,0.13444 4.8836,0.75273 9.12802,2.77896 12.80364,6.11228 3.29939,2.99214 5.99291,7.19259 7.373875,11.49931 0.87494,2.72863 1.24324,5.08308 1.24305,7.94647 -3.6e-4,5.34865 -1.75406,10.4574 -5.054205,14.72349 -1.63305,2.11105 -4.16336,4.48733 -6.3838,5.9952 -1.0605,0.72018 -3.6368,1.98805 -5.38523,2.65023 -1.71894,0.65102 -4.85392,1.49294 -5.55909,1.49294 -0.13234,0 -0.31385,-0.1385 -0.55259,-0.42162 -0.6925,-0.82127 -1.99881,-1.58727 -3.1074,-1.82212 -1.30729,-0.27695 -2.5769,-0.10555 -3.84126,0.51858 -0.64154,0.31669 -0.931137,0.52571 -1.45709,1.05166 l -0.656416,0.65642 -0.994712,-0.20996 c -8.233829,-1.73798 -15.402876,-7.44075 -19.245546,-15.30929 -1.983402,-4.06137 -2.91321,-7.84272 -3.215023,-13.07489 -0.08089,-1.40228 -0.175144,-1.87258 -0.28643,-1.42918 -0.02733,0.1089 -0.150033,0.90226 -0.27267,1.76303 -0.368201,2.58436 -0.50604,2.36144 -0.437193,-0.70704 0.0673,-2.99952 0.409005,-4.99472 1.329166,-7.76092 1.456065,-4.37725 3.848391,-8.21953 7.289016,-11.7068 l 1.233761,-1.25048 0.536717,0.2768 c 0.467608,0.24117 0.61945,0.27681 1.179239,0.27681 0.745651,0 1.225527,-0.19128 1.744592,-0.69539 0.649132,-0.63042 0.923274,-1.74069 0.639786,-2.59111 -0.129003,-0.38699 -0.214607,-0.30626 1.26381,-1.19186 4.049769,-2.42592 8.333652,-3.89845 12.996333,-4.46734 1.41446,-0.17258 5.62302,-0.14493 7.02733,0.0462 6.6721,0.90793 12.37426,3.33462 17.58454,7.48354 1.41731,1.12859 4.007075,3.71157 5.112395,5.09899 3.58799,4.50373 5.73491,9.4618 6.4269,14.84217 0.16063,1.24894 0.16831,1.86419 0.0227,1.81694 -0.17439,-0.0566 -0.38869,-0.59384 -1.12326,-2.81611 -0.38481,-1.16417 -0.93523,-2.66912 -1.22315,-3.34433 -3.46595,-8.12805 -9.898445,-14.76013 -17.598615,-18.14465 -3.73977,-1.64378 -7.33471,-2.46123 -11.3198,-2.574 -4.67587,-0.13231 -9.097957,0.81747 -13.460343,2.89103 -7.719635,3.66936 -13.024441,9.93223 -14.984849,17.69118 -0.540202,2.13802 -0.734408,3.61162 -0.784568,5.95315 -0.0262,1.22279 -0.0031,2.38944 0.06119,3.09033 0.49505,5.39751 2.458979,10.33417 5.719251,14.37629 0.879644,1.09059 2.613288,2.82467 3.638977,3.63989 1.765759,1.40343 4.507725,2.91595 6.589935,3.63513 7.032867,2.42912 15.156717,1.53289 20.905697,-2.30633 1.38922,-0.92774 2.19339,-1.58589 3.32418,-2.72063 4.26886,-4.28373 6.64519,-10.17414 6.64519,-16.47206 0,-3.62244 -0.664,-6.61487 -2.15109,-9.69433 -1.05018,-2.17472 -2.08268,-3.66405 -3.69046,-5.32331 -2.42839,-2.50615 -5.35437,-4.32467 -8.80579,-5.47286 -3.33194,-1.10844 -6.63678,-1.31468 -9.94833,-0.62082 -4.924733,1.03186 -9.419438,4.17705 -12.443886,8.70765 -0.762842,1.14274 -1.875888,3.40567 -2.311251,4.699 -0.821055,2.43912 -1.07214,4.10341 -1.00909,6.68867 0.03724,1.52697 0.08035,1.9909 0.267489,2.87867 0.739497,3.50809 2.370666,6.48304 4.981551,9.0854 1.23531,1.23127 2.521739,2.12374 4.305772,2.98716 l 0.479252,0.23194 -0.04685,0.61951 c -0.0611,0.80786 0.103751,1.25794 0.630592,1.72169 1.516119,1.33454 3.840384,-0.18429 3.205789,-2.09487 -0.366768,-1.10424 -1.596512,-1.66082 -2.659322,-1.20361 -0.259487,0.11163 -0.565804,0.33251 -0.734607,0.52972 l -0.289533,0.33825 -0.594704,-0.35932 c -4.445739,-2.68616 -7.573314,-7.42285 -8.338583,-12.62874 -0.173231,-1.17844 -0.1733,-3.45573 -1.4e-4,-4.63493 0.430569,-2.93214 1.614387,-5.51672 3.538086,-7.72456 1.995684,-2.29046 5.42736,-4.29267 8.902773,-5.19432 3.029251,-0.7859 6.654956,-0.76774 9.706666,0.0486 l 0.64734,0.17316 -0.1693,0.47995 c -0.25058,0.71036 -0.18899,1.75297 0.14374,2.43303 0.31252,0.63877 0.88357,1.20884 1.52673,1.5241 0.45713,0.22407 0.58817,0.24811 1.35282,0.24812 0.73789,2e-5 0.9078,-0.0286 1.3225,-0.22309 0.57994,-0.27193 1.11204,-0.73968 1.39958,-1.23033 0.13085,-0.22328 0.25331,-0.34413 0.31281,-0.3087 0.40355,0.24035 1.44841,1.15022 2.30649,2.00851 2.83626,2.83696 4.54271,6.30264 5.02614,10.20774 0.12944,1.04565 0.10862,3.2291 -0.0417,4.37604 -0.44861,3.42221 -1.802,6.83006 -3.72964,9.3913 -0.7464,0.99173 -1.80781,2.14 -2.57637,2.78722 -1.02917,0.86666 -1.21149,1.04294 -0.59936,0.5795 3.75405,-2.84225 6.21777,-6.82186 7.06844,-11.41759 0.83175,-4.49349 -0.30494,-10.15418 -2.80509,-13.96925 -0.99916,-1.52466 -2.5276,-3.16446 -3.9024,-4.18673 l -0.62052,-0.46141 0.0539,-0.35968 c 0.0717,-0.47792 -0.088,-1.31815 -0.34789,-1.83108 -0.29737,-0.58684 -0.87675,-1.13068 -1.53756,-1.44324 -0.50618,-0.23942 -0.64965,-0.26839 -1.33111,-0.26877 -0.68979,-3.8e-4 -0.81749,0.026 -1.31824,0.27254 -0.30495,0.15013 -0.69177,0.40631 -0.85959,0.5693 l -0.30513,0.29634 -0.83196,-0.25099 c -1.8456,-0.55678 -4.27469,-0.98988 -6.859184,-1.22295 -1.738673,-0.1568 -2.100779,-0.2523 -2.100779,-0.55403 0,-0.65804 3.181493,-1.29143 5.757333,-1.1462 4.34125,0.24476 7.81171,1.47536 11.07184,3.92598 4.14613,3.11663 6.90227,7.38541 7.88119,12.20659 0.30034,1.47921 0.3933,2.46979 0.3933,4.191 0,1.75829 -0.0914,2.69902 -0.42382,4.36033 -1.731,8.65186 -8.45142,15.55308 -16.77114,17.22236 -1.84134,0.36944 -2.48603,0.42935 -4.6067,0.42806 -2.738618,-0.002 -4.829202,-0.29827 -7.235699,-1.02656 -5.255852,-1.59061 -9.514643,-4.73944 -12.521333,-9.25795 -2.362534,-3.55045 -3.757195,-7.57163 -4.163865,-12.00553 -0.151061,-1.64701 -0.06894,-4.7185 0.169108,-6.32471 0.231563,-1.56247 0.786494,-3.78513 1.310604,-5.24933 0.548493,-1.53233 1.836203,-4.09711 2.741829,-5.461 4.421986,-6.65963 11.65727,-10.97792 20.376686,-12.16159 1.57172,-0.21337 5.40342,-0.21306 6.94267,5.4e-4 6.3462,0.8807 11.83463,3.50828 16.637,7.96496 4.183591,3.88244 7.500411,9.12125 9.324691,14.72805 1.06876,3.28474 1.64318,6.68824 1.73771,10.29604 0.0472,1.80047 -0.0264,3.02515 -0.28035,4.66629 l -0.0473,0.30596 -0.61279,0.0463 c -1.20009,0.0908 -2.38517,0.65008 -3.26868,1.54269 -1.13245,1.14414 -1.6411,2.35713 -1.6333,3.89505 0.008,1.52623 0.50965,2.73097 1.58742,3.8103 1.7366,1.73911 4.14289,2.13143 6.38005,1.04018 0.78572,-0.38326 1.90637,-1.49664 2.32556,-2.31048 0.81295,-1.57832 0.84057,-3.33173 0.0774,-4.91067 -0.54667,-1.13093 -1.40181,-2.00339 -2.50808,-2.55885 -0.23352,-0.11725 -0.4361,-0.2233 -0.45018,-0.23566 -0.0141,-0.0124 0.088,-0.5888 0.22682,-1.28098 0.45622,-2.27457 0.55824,-3.38188 0.55673,-6.04217 -0.002,-3.10944 -0.22942,-5.01082 -0.93765,-7.83167 -2.26442,-9.01905 -8.11837,-17.02374 -15.968591,-21.83546 -6.31057,-3.868 -14.0086,-5.63221 -21.06271,-4.82709 -4.932505,0.56298 -9.341132,2.14503 -13.610902,4.88433 l -0.783906,0.50292 -0.34873,-0.31506 c -1.270783,-1.14807 -3.217159,-0.76909 -3.976966,0.77436 -0.159621,0.32425 -0.202492,0.54737 -0.202492,1.05386 0,0.55919 0.03574,0.71181 0.275547,1.17679 l 0.275547,0.53428 -1.124053,1.15153 c -4.977366,5.09906 -8.119376,11.61399 -9.094284,18.85691 -0.187032,1.38952 -0.212607,5.70728 -0.04181,7.05963 0.781951,6.19158 3.058041,11.52271 7.084974,16.59467 4.150295,5.22732 9.48235,8.69883 15.73362,10.24359 l 1.266584,0.31299 0.141519,0.54395 c 0.07784,0.29917 0.241628,0.76261 0.363982,1.02987 0.222261,0.48548 0.222294,0.48588 0.03642,0.44502 -0.102323,-0.0225 -0.433692,-0.0811 -0.736376,-0.13025 -2.792726,-0.45347 -5.72021,-1.40501 -8.634911,-2.80666 -10.174068,-4.89261 -16.642285,-14.06129 -17.82228,-25.26301 -0.679049,-6.44624 0.535501,-13.50322 3.378042,-19.62765 0.208265,-0.44872 0.359074,-0.81585 0.335131,-0.81585 -0.08661,0 -1.216441,2.46218 -1.752283,3.81864 -2.455845,6.21687 -3.091659,12.73887 -1.872803,19.21069 0.963131,5.11398 3.17712,10.03489 6.33982,14.09115 5.081581,6.5173 12.233253,10.55145 20.718946,11.68726 0.338378,0.0453 0.426604,0.10067 0.631512,0.39635 0.530526,0.76555 1.666787,1.60816 2.620716,1.94344 0.79145,0.27818 1.11486,0.3227 2.15411,0.29655 0.79629,-0.02 1.09691,-0.0666 1.65019,-0.25585 z m -0.33786,-14.51671 c 0.60537,-0.0915 1.50072,-0.26629 1.98967,-0.38845 0.95788,-0.23932 2.73929,-0.806 2.68968,-0.85561 -0.0167,-0.0167 -0.42865,0.0985 -0.9155,0.25592 -1.02583,0.33172 -2.55349,0.66386 -3.76385,0.81831 -1.09138,0.13927 -4.074696,0.13915 -5.164663,-2.1e-4 -3.523984,-0.45056 -6.85224,-1.66165 -9.609666,-3.49678 -1.366112,-0.90919 -2.24817,-1.63651 -3.47053,-2.86171 -0.639764,-0.64126 -0.873891,-0.84392 -0.592667,-0.51303 1.196917,1.40832 2.86652,2.88751 4.444197,3.93736 1.173145,0.78065 3.332906,1.82754 4.713096,2.28455 1.268331,0.41997 3.217628,0.84279 4.473236,0.97029 1.209882,0.12286 3.915107,0.0446 5.206997,-0.15064 z m -6.076594,-2.09401 c -0.02813,-0.0281 -0.101159,-0.0311 -0.162278,-0.007 -0.06754,0.027 -0.04748,0.0471 0.05115,0.0512 0.08925,0.004 0.139259,-0.0163 0.111125,-0.0445 z m -1.27,-0.254 c -0.02813,-0.0281 -0.101159,-0.0311 -0.162277,-0.007 -0.06754,0.027 -0.04748,0.0471 0.05115,0.0512 0.08925,0.004 0.139259,-0.0163 0.111125,-0.0445 z m -0.338666,-0.0847 c -0.02813,-0.0281 -0.101159,-0.0311 -0.162278,-0.007 -0.06754,0.027 -0.04748,0.0471 0.05115,0.0512 0.08925,0.004 0.139259,-0.0163 0.111125,-0.0445 z m -0.338667,-0.0847 c -0.02813,-0.0281 -0.101159,-0.0311 -0.162278,-0.007 -0.06754,0.027 -0.04748,0.0471 0.05115,0.0512 0.08925,0.004 0.139259,-0.0163 0.111125,-0.0445 z m -0.592667,-0.16934 c -0.02813,-0.0281 -0.101159,-0.0311 -0.162277,-0.007 -0.06754,0.027 -0.04748,0.0471 0.05115,0.0512 0.08925,0.004 0.139259,-0.0163 0.111125,-0.0445 z m 14.578554,-1.22822 c 2.85191,-1.52092 5.02062,-3.58698 6.51512,-6.20675 1.04015,-1.82331 1.84925,-4.36413 1.99732,-6.27221 0.0439,-0.5658 0.0388,-0.55429 -0.11169,0.254 -1.01236,5.43598 -3.98138,9.67002 -8.56303,12.2115 -0.44238,0.2454 -0.7694,0.44617 -0.72671,0.44617 0.0427,0 0.44273,-0.19472 0.88899,-0.43271 z m -25.223622,-3.74517 c 0,-0.0161 -0.08572,-0.10179 -0.1905,-0.1905 l -0.1905,-0.16129 0.161289,0.1905 c 0.151571,0.17903 0.219711,0.22905 0.219711,0.16129 z m -0.338667,-0.42609 c 0,-0.0176 -0.06668,-0.0843 -0.148167,-0.14816 -0.134286,-0.10532 -0.13728,-0.10232 -0.03197,0.032 0.110606,0.14104 0.180133,0.18589 0.180133,0.1162 z m 46.648744,-0.34896 c 0,-0.0466 -0.0369,-0.0275 -0.0821,0.0423 -0.0451,0.0699 -0.0821,0.1651 -0.0821,0.21167 0,0.0466 0.0369,0.0275 0.0821,-0.0423 0.0452,-0.0699 0.0821,-0.1651 0.0821,-0.21167 z m -49.746521,-4.95873 c -0.573277,-1.35922 -1.098296,-3.29088 -1.38902,-5.11049 -0.57929,-3.62573 -0.377317,-7.35268 0.582979,-10.75756 0.241234,-0.85533 0.149055,-0.78372 -0.117942,0.0916 -1.419729,4.65456 -1.404106,9.26021 0.04642,13.68612 0.334301,1.02003 1.091574,2.89135 1.147442,2.83548 0.01718,-0.0172 -0.104269,-0.35251 -0.269883,-0.74518 z m 22.641456,-2.41453 c 0.26399,-0.0668 0.80384,-0.27879 1.19965,-0.47113 0.95944,-0.46622 2.00699,-1.49871 2.47821,-2.44261 1.10595,-2.2153 0.77178,-4.77341 -0.85277,-6.52807 -0.82301,-0.88894 -1.70491,-1.43291 -2.81222,-1.73464 -0.73142,-0.19931 -2.13632,-0.20294 -2.86769,-0.007 -4.246903,1.13538 -5.769269,6.35915 -2.773539,9.51697 1.016025,1.07101 1.986382,1.56452 3.610679,1.83637 0.34643,0.058 1.50235,-0.0391 2.01768,-0.16948 z m 14.63774,-1.79074 c -0.0195,-0.1287 -0.0359,-0.0435 -0.0365,0.18933 -6.3e-4,0.23284 0.0153,0.33814 0.0354,0.234 0.0201,-0.10413 0.0206,-0.29463 0.001,-0.42333 z m 14.136945,-3.9805 c -0.0213,-0.0815 -0.0387,-0.0148 -0.0387,0.14817 0,0.16298 0.0174,0.22966 0.0387,0.14816 0.0213,-0.0815 0.0213,-0.21484 0,-0.29633 z m -0.0847,-0.762 c -0.0213,-0.0815 -0.0387,-0.0148 -0.0387,0.14817 0,0.16298 0.0174,0.22966 0.0387,0.14816 0.0213,-0.0815 0.0213,-0.21484 0,-0.29633 z m -0.0847,-0.59267 c -0.0213,-0.0815 -0.0387,-0.0148 -0.0387,0.14817 0,0.16298 0.0174,0.22966 0.0387,0.14817 0.0213,-0.0815 0.0213,-0.21484 0,-0.29634 z m -0.18428,-1.18248 c -1.09989,-5.96075 -4.24571,-11.616 -8.627755,-15.51014 -1.34022,-1.191 -1.67773,-1.44096 -0.68667,-0.50855 2.25949,2.12577 3.75353,3.92932 5.299255,6.39711 1.94953,3.11247 3.499,7.06514 4.02783,10.2749 0.0345,0.20955 0.0767,0.31561 0.0937,0.23568 0.017,-0.0799 -0.0309,-0.47997 -0.10633,-0.889 z m -1.50958,-0.88656 c -0.027,-0.0675 -0.0471,-0.0475 -0.0512,0.0511 -0.004,0.0893 0.0163,0.13926 0.0445,0.11113 0.0281,-0.0281 0.0311,-0.10116 0.007,-0.16228 z m -8.693845,-15.93067 c 0,-0.0161 -0.0857,-0.10179 -0.1905,-0.1905 l -0.1905,-0.16129 0.16129,0.1905 c 0.15157,0.17903 0.21971,0.22905 0.21971,0.16129 z m -0.42333,-0.34142 c 0,-0.0176 -0.0667,-0.0843 -0.14817,-0.14817 -0.13428,-0.10531 -0.13728,-0.10232 -0.032,0.032 0.1106,0.14103 0.18013,0.18588 0.18013,0.1162 z m -31.654533,-0.96287 c 0.105314,-0.13428 0.10232,-0.13728 -0.03197,-0.032 -0.08149,0.0639 -0.148167,0.13058 -0.148167,0.14816 0,0.0697 0.06953,0.0248 0.180133,-0.1162 z m 1.499525,-0.9294 c 3.099557,-1.83452 6.872038,-3.08123 10.724008,-3.54402 1.60514,-0.19284 4.58662,-0.19207 6.18067,0.002 2.7115,0.32945 5.42107,1.06242 7.56992,2.04774 0.34498,0.15818 0.64098,0.27388 0.65776,0.2571 0.0168,-0.0168 -0.27844,-0.17174 -0.65606,-0.34435 -2.35975,-1.07867 -4.71116,-1.78902 -7.23296,-2.18503 -1.02024,-0.16022 -1.52731,-0.18614 -3.64066,-0.18614 -2.11168,0 -2.62124,0.026 -3.64067,0.18586 -2.962675,0.46454 -5.818533,1.40525 -8.382,2.76101 -0.88643,0.46881 -2.250479,1.29393 -2.539999,1.53646 -0.137289,0.11501 -0.121266,0.11305 0.08467,-0.0103 0.1397,-0.0837 0.533596,-0.31766 0.875325,-0.51992 z m 26.429678,-0.57045 c 0,-0.0216 -0.0857,-0.0809 -0.1905,-0.13167 -0.18294,-0.0887 -0.18398,-0.0871 -0.0262,0.0393 0.17275,0.1384 0.21666,0.15711 0.21666,0.0923 z"
       id="path1" /></g></svg>
