<svg width="1000" height="1000" viewBox="0 0 1000 1000" fill="none" xmlns="http://www.w3.org/2000/svg">
<g clip-path="url(#clip0_439_866)">
<path d="M573.119 510.252C573.119 456.208 528.947 412.232 474.656 412.232C420.371 412.232 376.201 456.209 376.201 510.252C376.201 564.31 420.371 608.278 474.656 608.278C528.947 608.278 573.119 564.31 573.119 510.252ZM719.399 0H219.686C82.009 0 -30 111.522 -30 248.597V317.863H337.413C376.182 290.367 423.531 274.124 474.656 274.124C525.78 274.124 573.136 290.367 611.907 317.863H969.084V248.597C969.084 111.521 857.075 0 719.399 0ZM820.519 236.435C820.519 251.626 808.039 264.057 792.776 264.057H707.056C691.795 264.057 679.313 251.626 679.313 236.435V151.083C679.313 135.893 691.794 123.461 707.056 123.461H792.776C808.038 123.461 820.519 135.891 820.519 151.083V236.435V236.435ZM711.831 510.252C711.831 640.467 605.429 746.385 474.655 746.385C343.877 746.385 237.485 640.467 237.485 510.252C237.485 474.404 245.595 440.407 260.017 409.934H-30V750.197C-30 887.282 82.009 998.794 219.686 998.794H719.4C857.076 998.794 969.085 887.281 969.085 750.197V409.934H689.299C703.721 440.407 711.831 474.404 711.831 510.252Z" fill="#F4F4F4"/>
</g>
<defs>
<clipPath id="clip0_439_866">
<rect width="1000" height="1000" fill="white"/>
</clipPath>
</defs>
</svg>
