<?xml version="1.0" encoding="utf-8"?>
<svg viewBox="0 0 500 500" xmlns="http://www.w3.org/2000/svg">
  <defs>
    <linearGradient gradientUnits="userSpaceOnUse" x1="248.368" y1="40.987" x2="248.368" y2="95.6" id="gradient-0" gradientTransform="matrix(0.003483, 0.999996, -4.463973, 0.010634, 539.287916, -16.431671)">
      <stop offset="0" style="stop-color: rgb(116, 58, 160);"/>
      <stop offset="1" style="stop-color: rgb(52, 87, 133);"/>
    </linearGradient>
    <linearGradient gradientUnits="userSpaceOnUse" x1="245.451" y1="35.423" x2="245.451" y2="90.036" id="gradient-2" gradientTransform="matrix(-0.010896, -0.99996, 4.51754, -0.033666, 25.427093, 512.875122)">
      <stop offset="0" style="stop-color: rgb(52, 87, 133);"/>
      <stop offset="1" style="stop-color: rgb(116, 58, 160);"/>
    </linearGradient>
  </defs>
  <path d="M 2.497 243.661 L 2.497 224.876 L 8.632 224.876 L 8.632 239.546 L 25.213 239.546 L 25.213 243.661 L 2.497 243.661 Z M 59.508 234.282 C 59.508 235.896 59.15 237.32 58.434 238.555 C 57.717 239.79 56.692 240.822 55.359 241.651 C 54.025 242.481 52.408 243.107 50.506 243.531 C 48.605 243.955 46.47 244.167 44.1 244.167 C 41.731 244.167 39.59 243.955 37.678 243.531 C 35.766 243.107 34.137 242.481 32.793 241.651 C 31.448 240.822 30.412 239.79 29.684 238.555 C 28.957 237.32 28.593 235.896 28.593 234.282 C 28.593 232.669 28.957 231.245 29.684 230.01 C 30.412 228.775 31.448 227.743 32.793 226.913 C 34.137 226.084 35.766 225.457 37.678 225.033 C 39.59 224.609 41.731 224.397 44.1 224.397 C 46.47 224.397 48.605 224.609 50.506 225.033 C 52.408 225.457 54.025 226.084 55.359 226.913 C 56.692 227.743 57.717 228.775 58.434 230.01 C 59.15 231.245 59.508 232.669 59.508 234.282 Z M 53.309 234.282 C 53.309 233.58 53.174 232.881 52.904 232.183 C 52.634 231.487 52.154 230.86 51.465 230.304 C 50.777 229.748 49.837 229.297 48.647 228.95 C 47.456 228.604 45.94 228.431 44.1 228.431 C 42.866 228.431 41.78 228.511 40.844 228.67 C 39.907 228.83 39.097 229.051 38.413 229.333 C 37.73 229.616 37.157 229.946 36.694 230.324 C 36.231 230.702 35.862 231.108 35.586 231.541 C 35.31 231.974 35.115 232.425 34.999 232.894 C 34.883 233.364 34.825 233.826 34.825 234.282 C 34.825 234.747 34.883 235.216 34.999 235.69 C 35.115 236.164 35.31 236.618 35.586 237.051 C 35.862 237.484 36.231 237.887 36.694 238.261 C 37.157 238.635 37.73 238.96 38.413 239.238 C 39.097 239.516 39.907 239.735 40.844 239.894 C 41.78 240.054 42.866 240.134 44.1 240.134 C 45.94 240.134 47.456 239.961 48.647 239.614 C 49.837 239.268 50.777 238.817 51.465 238.261 C 52.154 237.705 52.634 237.079 52.904 236.381 C 53.174 235.684 53.309 234.984 53.309 234.282 Z M 94.485 234.282 C 94.485 235.896 94.127 237.32 93.41 238.555 C 92.694 239.79 91.669 240.822 90.335 241.651 C 89.002 242.481 87.385 243.107 85.484 243.531 C 83.582 243.955 81.447 244.167 79.077 244.167 C 76.707 244.167 74.566 243.955 72.654 243.531 C 70.742 243.107 69.113 242.481 67.769 241.651 C 66.424 240.822 65.388 239.79 64.661 238.555 C 63.934 237.32 63.571 235.896 63.571 234.282 C 63.571 232.669 63.934 231.245 64.661 230.01 C 65.388 228.775 66.424 227.743 67.769 226.913 C 69.113 226.084 70.742 225.457 72.654 225.033 C 74.566 224.609 76.707 224.397 79.077 224.397 C 81.447 224.397 83.582 224.609 85.484 225.033 C 87.385 225.457 89.002 226.084 90.335 226.913 C 91.669 227.743 92.694 228.775 93.41 230.01 C 94.127 231.245 94.485 232.669 94.485 234.282 Z M 88.285 234.282 C 88.285 233.58 88.15 232.881 87.88 232.183 C 87.61 231.487 87.131 230.86 86.443 230.304 C 85.753 229.748 84.814 229.297 83.624 228.95 C 82.433 228.604 80.918 228.431 79.077 228.431 C 77.843 228.431 76.758 228.511 75.821 228.67 C 74.883 228.83 74.073 229.051 73.39 229.333 C 72.707 229.616 72.134 229.946 71.671 230.324 C 71.208 230.702 70.839 231.108 70.563 231.541 C 70.288 231.974 70.092 232.425 69.977 232.894 C 69.861 233.364 69.803 233.826 69.803 234.282 C 69.803 234.747 69.861 235.216 69.977 235.69 C 70.092 236.164 70.288 236.618 70.563 237.051 C 70.839 237.484 71.208 237.887 71.671 238.261 C 72.134 238.635 72.707 238.96 73.39 239.238 C 74.073 239.516 74.883 239.735 75.821 239.894 C 76.758 240.054 77.843 240.134 79.077 240.134 C 80.918 240.134 82.433 239.961 83.624 239.614 C 84.814 239.268 85.753 238.817 86.443 238.261 C 87.131 237.705 87.61 237.079 87.88 236.381 C 88.15 235.684 88.285 234.984 88.285 234.282 Z M 121.629 243.661 C 121.519 242.641 121.221 241.745 120.736 240.974 C 120.251 240.204 119.642 239.541 118.91 238.985 C 118.176 238.429 117.349 237.969 116.43 237.604 C 115.509 237.24 114.564 236.95 113.594 236.736 C 112.624 236.522 111.657 236.372 110.693 236.285 C 109.728 236.199 108.833 236.155 108.006 236.155 L 106.188 236.155 L 106.188 243.661 L 100.055 243.661 L 100.055 224.876 L 106.188 224.876 L 106.188 232.122 L 107.444 232.122 C 108.293 232.122 109.18 232.068 110.105 231.958 C 111.032 231.849 111.95 231.676 112.859 231.438 C 113.768 231.202 114.642 230.896 115.479 230.522 C 116.317 230.149 117.066 229.693 117.727 229.155 C 118.388 228.617 118.939 227.995 119.38 227.289 C 119.821 226.583 120.097 225.778 120.207 224.876 L 126.456 224.876 C 126.346 225.87 126.106 226.767 125.737 227.569 C 125.368 228.371 124.91 229.089 124.364 229.723 C 123.819 230.357 123.211 230.91 122.539 231.384 C 121.866 231.858 121.177 232.266 120.472 232.607 C 119.767 232.949 119.064 233.232 118.363 233.455 C 117.663 233.679 117.01 233.85 116.404 233.968 C 117.176 234.068 117.978 234.225 118.811 234.439 C 119.642 234.654 120.466 234.937 121.282 235.287 C 122.097 235.638 122.877 236.069 123.621 236.579 C 124.365 237.09 125.034 237.687 125.629 238.37 C 126.224 239.054 126.72 239.833 127.118 240.708 C 127.514 241.583 127.768 242.567 127.878 243.661 L 121.629 243.661 Z M 133.136 243.661 L 133.136 224.876 L 139.27 224.876 L 139.27 243.661 L 133.136 243.661 Z M 168.015 243.661 L 168.015 233.134 C 168.015 232.432 167.944 231.796 167.8 231.226 C 167.657 230.657 167.389 230.17 166.998 229.764 C 166.607 229.358 166.061 229.044 165.361 228.82 C 164.661 228.597 163.761 228.485 162.659 228.485 C 161.821 228.485 160.942 228.579 160.021 228.765 C 159.102 228.953 158.19 229.201 157.286 229.511 C 156.382 229.821 155.519 230.181 154.698 230.591 C 153.877 231.001 153.147 231.43 152.507 231.876 L 152.507 243.661 L 146.374 243.661 L 146.374 224.876 L 152.507 224.876 L 152.507 227.446 C 153.279 227.082 154.1 226.719 154.972 226.359 C 155.842 225.999 156.768 225.674 157.748 225.382 C 158.729 225.09 159.771 224.853 160.873 224.671 C 161.975 224.489 163.138 224.397 164.361 224.397 C 165.894 224.397 167.263 224.55 168.47 224.855 C 169.677 225.161 170.699 225.594 171.537 226.154 C 172.374 226.715 173.016 227.394 173.463 228.191 C 173.909 228.989 174.132 229.88 174.132 230.864 L 174.132 243.661 L 168.015 243.661 Z M 195.763 224.397 C 197.989 224.397 200.058 224.555 201.97 224.869 C 203.883 225.184 205.638 225.587 207.236 226.079 L 207.236 230.673 C 206.608 230.381 205.9 230.099 205.111 229.825 C 204.324 229.552 203.467 229.31 202.541 229.1 C 201.615 228.891 200.623 228.723 199.565 228.595 C 198.507 228.467 197.394 228.403 196.226 228.403 C 194.771 228.403 193.503 228.49 192.423 228.663 C 191.343 228.837 190.417 229.069 189.646 229.36 C 188.874 229.652 188.241 229.992 187.745 230.379 C 187.249 230.767 186.858 231.179 186.571 231.616 C 186.284 232.054 186.086 232.5 185.976 232.956 C 185.865 233.412 185.81 233.854 185.81 234.282 C 185.81 234.656 185.857 235.062 185.95 235.499 C 186.045 235.937 186.221 236.374 186.48 236.811 C 186.739 237.249 187.099 237.669 187.562 238.069 C 188.026 238.471 188.63 238.826 189.374 239.136 C 190.117 239.446 191.012 239.694 192.059 239.881 C 193.106 240.068 194.352 240.161 195.796 240.161 C 196.523 240.161 197.156 240.143 197.697 240.106 C 198.237 240.07 198.73 240.02 199.177 239.956 C 199.623 239.892 200.042 239.815 200.433 239.723 C 200.824 239.633 201.229 239.537 201.648 239.436 L 201.648 237.167 L 194.77 237.167 L 194.77 233.052 L 207.781 233.052 L 207.781 242.649 C 206.965 242.877 206.053 243.085 205.045 243.271 C 204.036 243.459 202.995 243.618 201.92 243.75 C 200.846 243.882 199.769 243.985 198.689 244.057 C 197.609 244.131 196.589 244.167 195.63 244.167 C 194.143 244.167 192.715 244.085 191.348 243.921 C 189.982 243.757 188.706 243.504 187.521 243.162 C 186.337 242.82 185.257 242.385 184.282 241.856 C 183.306 241.328 182.474 240.699 181.785 239.97 C 181.096 239.241 180.562 238.405 180.181 237.461 C 179.801 236.518 179.61 235.458 179.61 234.282 C 179.61 233.116 179.809 232.058 180.205 231.11 C 180.603 230.162 181.157 229.324 181.867 228.595 C 182.578 227.866 183.432 227.237 184.43 226.708 C 185.428 226.18 186.524 225.744 187.719 225.402 C 188.916 225.061 190.194 224.808 191.555 224.643 C 192.917 224.479 194.319 224.397 195.763 224.397 Z M 237.824 228.882 C 237.108 228.882 236.466 228.905 235.898 228.95 C 235.33 228.996 234.848 229.105 234.451 229.278 C 234.055 229.452 233.752 229.709 233.542 230.051 C 233.333 230.393 233.228 230.86 233.228 231.452 L 233.228 232.149 L 250.355 232.149 L 250.355 236.155 L 233.228 236.155 L 233.228 243.661 L 227.095 243.661 L 227.095 231.028 C 227.095 230.062 227.268 229.197 227.616 228.431 C 227.962 227.665 228.544 227.02 229.359 226.496 C 230.175 225.972 231.256 225.571 232.6 225.293 C 233.945 225.015 235.62 224.876 237.626 224.876 L 251.165 224.876 L 251.165 228.882 L 237.824 228.882 Z M 285.822 234.282 C 285.822 235.896 285.464 237.32 284.747 238.555 C 284.03 239.79 283.005 240.822 281.672 241.651 C 280.339 242.481 278.721 243.107 276.82 243.531 C 274.919 243.955 272.784 244.167 270.414 244.167 C 268.044 244.167 265.903 243.955 263.991 243.531 C 262.079 243.107 260.451 242.481 259.106 241.651 C 257.761 240.822 256.725 239.79 255.998 238.555 C 255.27 237.32 254.906 235.896 254.906 234.282 C 254.906 232.669 255.27 231.245 255.998 230.01 C 256.725 228.775 257.761 227.743 259.106 226.913 C 260.451 226.084 262.079 225.457 263.991 225.033 C 265.903 224.609 268.044 224.397 270.414 224.397 C 272.784 224.397 274.919 224.609 276.82 225.033 C 278.721 225.457 280.339 226.084 281.672 226.913 C 283.005 227.743 284.03 228.775 284.747 230.01 C 285.464 231.245 285.822 232.669 285.822 234.282 Z M 279.622 234.282 C 279.622 233.58 279.487 232.881 279.217 232.183 C 278.947 231.487 278.468 230.86 277.778 230.304 C 277.09 229.748 276.15 229.297 274.96 228.95 C 273.77 228.604 272.255 228.431 270.414 228.431 C 269.179 228.431 268.093 228.511 267.157 228.67 C 266.22 228.83 265.41 229.051 264.726 229.333 C 264.043 229.616 263.471 229.946 263.008 230.324 C 262.544 230.702 262.175 231.108 261.9 231.541 C 261.625 231.974 261.429 232.425 261.313 232.894 C 261.197 233.364 261.14 233.826 261.14 234.282 C 261.14 234.747 261.197 235.216 261.313 235.69 C 261.429 236.164 261.625 236.618 261.9 237.051 C 262.175 237.484 262.544 237.887 263.008 238.261 C 263.471 238.635 264.043 238.96 264.726 239.238 C 265.41 239.516 266.22 239.735 267.157 239.894 C 268.093 240.054 269.179 240.134 270.414 240.134 C 272.255 240.134 273.77 239.961 274.96 239.614 C 276.15 239.268 277.09 238.817 277.778 238.261 C 278.468 237.705 278.947 237.079 279.217 236.381 C 279.487 235.684 279.622 234.984 279.622 234.282 Z M 312.288 229.128 C 312.123 229.082 311.883 229.021 311.568 228.943 C 311.254 228.866 310.888 228.789 310.469 228.711 C 310.05 228.634 309.59 228.568 309.088 228.513 C 308.587 228.459 308.072 228.431 307.543 228.431 C 306.441 228.431 305.413 228.543 304.459 228.765 C 303.506 228.989 302.616 229.285 301.79 229.654 C 300.963 230.024 300.195 230.443 299.484 230.912 C 298.773 231.382 298.12 231.862 297.525 232.354 L 297.525 243.661 L 291.39 243.661 L 291.39 224.876 L 297.525 224.876 L 297.525 227.925 C 298.263 227.469 299.021 227.029 299.798 226.605 C 300.574 226.182 301.384 225.806 302.227 225.477 C 303.07 225.149 303.96 224.887 304.897 224.691 C 305.834 224.495 306.826 224.397 307.873 224.397 C 308.27 224.397 308.675 224.413 309.088 224.445 C 309.502 224.477 309.904 224.516 310.295 224.561 C 310.687 224.607 311.053 224.658 311.394 224.712 C 311.736 224.767 312.034 224.822 312.288 224.876 L 312.288 229.128 Z M 348.154 243.661 L 348.154 241.815 C 347.372 242.171 346.532 242.485 345.633 242.759 C 344.735 243.033 343.801 243.265 342.831 243.456 C 341.861 243.648 340.861 243.791 339.831 243.887 C 338.8 243.983 337.761 244.03 336.715 244.03 C 335.491 244.03 334.309 243.935 333.168 243.743 C 332.028 243.552 331.016 243.242 330.134 242.813 C 329.253 242.385 328.544 241.825 328.01 241.132 C 327.475 240.44 327.208 239.592 327.208 238.589 C 327.208 237.322 327.627 236.267 328.465 235.424 C 329.302 234.581 330.581 233.89 332.3 233.352 C 334.02 232.815 336.194 232.4 338.823 232.108 C 341.451 231.817 344.561 231.589 348.154 231.425 L 348.154 231.028 C 348.154 230.718 348.055 230.411 347.857 230.105 C 347.658 229.8 347.298 229.531 346.774 229.299 C 346.25 229.067 345.534 228.877 344.626 228.731 C 343.716 228.586 342.556 228.513 341.145 228.513 C 340.032 228.513 338.933 228.561 337.847 228.656 C 336.761 228.752 335.714 228.882 334.705 229.046 C 333.697 229.21 332.741 229.402 331.837 229.62 C 330.933 229.839 330.112 230.067 329.374 230.304 L 329.374 225.792 C 330.145 225.628 331.011 225.469 331.97 225.313 C 332.929 225.159 333.926 225.024 334.962 224.91 C 335.997 224.796 337.045 224.705 338.103 224.637 C 339.161 224.569 340.175 224.534 341.145 224.534 C 343.052 224.534 344.81 224.664 346.419 224.924 C 348.028 225.184 349.414 225.587 350.576 226.134 C 351.739 226.681 352.649 227.374 353.304 228.212 C 353.96 229.051 354.288 230.049 354.288 231.206 L 354.288 243.661 L 348.154 243.661 Z M 348.154 235.089 C 345.796 235.162 343.793 235.267 342.145 235.403 C 340.498 235.54 339.128 235.7 338.037 235.882 C 336.946 236.064 336.089 236.26 335.466 236.47 C 334.844 236.68 334.378 236.894 334.069 237.112 C 333.76 237.331 333.57 237.55 333.498 237.768 C 333.427 237.988 333.391 238.188 333.391 238.37 C 333.391 238.589 333.463 238.801 333.606 239.006 C 333.75 239.211 334 239.391 334.358 239.546 C 334.717 239.701 335.194 239.824 335.789 239.915 C 336.384 240.007 337.133 240.052 338.037 240.052 C 339.039 240.052 340.021 239.988 340.98 239.86 C 341.938 239.733 342.848 239.558 343.708 239.334 C 344.567 239.111 345.374 238.847 346.13 238.541 C 346.884 238.236 347.559 237.91 348.154 237.563 L 348.154 235.089 Z M 399.049 242.376 C 398.256 242.65 397.457 242.896 396.653 243.114 C 395.848 243.333 395.016 243.522 394.156 243.682 C 393.296 243.842 392.39 243.962 391.436 244.044 C 390.483 244.126 389.461 244.167 388.37 244.167 C 386.055 244.167 383.925 243.962 381.98 243.552 C 380.035 243.142 378.36 242.524 376.955 241.699 C 375.55 240.875 374.456 239.845 373.673 238.609 C 372.89 237.375 372.499 235.932 372.499 234.282 C 372.499 232.632 372.89 231.19 373.673 229.955 C 374.456 228.72 375.55 227.69 376.955 226.865 C 378.36 226.041 380.035 225.423 381.98 225.013 C 383.925 224.603 386.055 224.397 388.37 224.397 C 389.461 224.397 390.483 224.438 391.436 224.52 C 392.39 224.602 393.296 224.723 394.156 224.883 C 395.016 225.043 395.848 225.232 396.653 225.45 C 397.457 225.669 398.256 225.915 399.049 226.188 L 399.049 230.755 C 398.421 230.473 397.76 230.192 397.066 229.914 C 396.371 229.636 395.605 229.386 394.768 229.162 C 393.93 228.939 393.01 228.757 392.007 228.615 C 391.004 228.474 389.874 228.403 388.618 228.403 C 386.689 228.403 385.089 228.567 383.816 228.895 C 382.543 229.224 381.526 229.662 380.765 230.208 C 380.005 230.755 379.47 231.382 379.162 232.088 C 378.853 232.794 378.698 233.526 378.698 234.282 C 378.698 234.784 378.765 235.278 378.897 235.765 C 379.029 236.253 379.249 236.714 379.558 237.146 C 379.867 237.58 380.269 237.979 380.765 238.343 C 381.261 238.708 381.878 239.022 382.616 239.286 C 383.355 239.55 384.217 239.758 385.204 239.908 C 386.191 240.059 387.329 240.134 388.618 240.134 C 389.874 240.134 391.004 240.068 392.007 239.935 C 393.01 239.803 393.93 239.628 394.768 239.409 C 395.605 239.191 396.371 238.942 397.066 238.664 C 397.76 238.386 398.421 238.101 399.049 237.809 L 399.049 242.376 Z M 434.161 234.282 C 434.161 235.896 433.803 237.32 433.087 238.555 C 432.371 239.79 431.346 240.822 430.012 241.651 C 428.678 242.481 427.061 243.107 425.16 243.531 C 423.259 243.955 421.123 244.167 418.753 244.167 C 416.384 244.167 414.243 243.955 412.331 243.531 C 410.419 243.107 408.791 242.481 407.446 241.651 C 406.101 240.822 405.065 239.79 404.337 238.555 C 403.61 237.32 403.247 235.896 403.247 234.282 C 403.247 232.669 403.61 231.245 404.337 230.01 C 405.065 228.775 406.101 227.743 407.446 226.913 C 408.791 226.084 410.419 225.457 412.331 225.033 C 414.243 224.609 416.384 224.397 418.753 224.397 C 421.123 224.397 423.259 224.609 425.16 225.033 C 427.061 225.457 428.678 226.084 430.012 226.913 C 431.346 227.743 432.371 228.775 433.087 230.01 C 433.803 231.245 434.161 232.669 434.161 234.282 Z M 427.961 234.282 C 427.961 233.58 427.826 232.881 427.556 232.183 C 427.287 231.487 426.808 230.86 426.119 230.304 C 425.43 229.748 424.491 229.297 423.3 228.95 C 422.109 228.604 420.594 228.431 418.753 228.431 C 417.519 228.431 416.434 228.511 415.497 228.67 C 414.56 228.83 413.75 229.051 413.066 229.333 C 412.383 229.616 411.81 229.946 411.347 230.324 C 410.884 230.702 410.515 231.108 410.239 231.541 C 409.964 231.974 409.768 232.425 409.653 232.894 C 409.537 233.364 409.479 233.826 409.479 234.282 C 409.479 234.747 409.537 235.216 409.653 235.69 C 409.768 236.164 409.964 236.618 410.239 237.051 C 410.515 237.484 410.884 237.887 411.347 238.261 C 411.81 238.635 412.383 238.96 413.066 239.238 C 413.75 239.516 414.56 239.735 415.497 239.894 C 416.434 240.054 417.519 240.134 418.753 240.134 C 420.594 240.134 422.109 239.961 423.3 239.614 C 424.491 239.268 425.43 238.817 426.119 238.261 C 426.808 237.705 427.287 237.079 427.556 236.381 C 427.826 235.684 427.961 234.984 427.961 234.282 Z M 469.138 234.282 C 469.138 235.896 468.78 237.32 468.063 238.555 C 467.348 239.79 466.323 240.822 464.988 241.651 C 463.655 242.481 462.038 243.107 460.137 243.531 C 458.235 243.955 456.1 244.167 453.731 244.167 C 451.361 244.167 449.22 243.955 447.307 243.531 C 445.395 243.107 443.767 242.481 442.422 241.651 C 441.078 240.822 440.042 239.79 439.315 238.555 C 438.587 237.32 438.224 235.896 438.224 234.282 C 438.224 232.669 438.587 231.245 439.315 230.01 C 440.042 228.775 441.078 227.743 442.422 226.913 C 443.767 226.084 445.395 225.457 447.307 225.033 C 449.22 224.609 451.361 224.397 453.731 224.397 C 456.1 224.397 458.235 224.609 460.137 225.033 C 462.038 225.457 463.655 226.084 464.988 226.913 C 466.323 227.743 467.348 228.775 468.063 230.01 C 468.78 231.245 469.138 232.669 469.138 234.282 Z M 462.939 234.282 C 462.939 233.58 462.804 232.881 462.534 232.183 C 462.264 231.487 461.784 230.86 461.096 230.304 C 460.407 229.748 459.467 229.297 458.277 228.95 C 457.087 228.604 455.571 228.431 453.731 228.431 C 452.497 228.431 451.411 228.511 450.473 228.67 C 449.536 228.83 448.727 229.051 448.044 229.333 C 447.36 229.616 446.787 229.946 446.324 230.324 C 445.862 230.702 445.492 231.108 445.217 231.541 C 444.941 231.974 444.745 232.425 444.629 232.894 C 444.514 233.364 444.456 233.826 444.456 234.282 C 444.456 234.747 444.514 235.216 444.629 235.69 C 444.745 236.164 444.941 236.618 445.217 237.051 C 445.492 237.484 445.862 237.887 446.324 238.261 C 446.787 238.635 447.36 238.96 448.044 239.238 C 448.727 239.516 449.536 239.735 450.473 239.894 C 451.411 240.054 452.497 240.134 453.731 240.134 C 455.571 240.134 457.087 239.961 458.277 239.614 C 459.467 239.268 460.407 238.817 461.096 238.261 C 461.784 237.705 462.264 237.079 462.534 236.381 C 462.804 235.684 462.939 234.984 462.939 234.282 Z M 480.854 235.622 C 480.854 236.406 480.943 237.047 481.119 237.543 C 481.296 238.04 481.582 238.434 481.979 238.725 C 482.376 239.017 482.891 239.218 483.524 239.327 C 484.159 239.437 484.939 239.491 485.864 239.491 L 497.503 239.491 L 497.503 243.661 L 484.608 243.661 C 482.822 243.661 481.304 243.541 480.053 243.299 C 478.802 243.057 477.78 242.684 476.986 242.178 C 476.193 241.672 475.617 241.032 475.258 240.257 C 474.9 239.483 474.721 238.562 474.721 237.495 L 474.721 224.876 L 480.854 224.876 L 480.854 235.622 Z" style="fill: rgb(244, 244, 244); stroke-width: 1.5px; white-space: pre; stroke: url(#gradient-0);"/>
  <path d="M 96.44 271.661 L 96.44 261.134 C 96.44 260.432 96.368 259.796 96.224 259.226 C 96.081 258.657 95.814 258.17 95.423 257.764 C 95.032 257.358 94.486 257.044 93.787 256.82 C 93.086 256.597 92.185 256.485 91.083 256.485 C 90.245 256.485 89.367 256.579 88.447 256.765 C 87.526 256.953 86.614 257.201 85.71 257.511 C 84.807 257.821 83.944 258.181 83.123 258.591 C 82.302 259.001 81.572 259.43 80.933 259.876 L 80.933 271.661 L 74.799 271.661 L 74.799 252.876 L 80.933 252.876 L 80.933 255.446 C 81.704 255.082 82.525 254.719 83.396 254.359 C 84.267 253.999 85.192 253.674 86.174 253.382 C 87.154 253.09 88.195 252.853 89.298 252.671 C 90.4 252.489 91.563 252.397 92.785 252.397 C 94.318 252.397 95.688 252.55 96.894 252.855 C 98.101 253.161 99.123 253.594 99.961 254.154 C 100.798 254.715 101.441 255.394 101.887 256.191 C 102.334 256.989 102.557 257.88 102.557 258.864 L 102.557 271.661 L 96.44 271.661 Z M 134.884 270.731 C 133.021 271.242 131.161 271.609 129.303 271.832 C 127.447 272.056 125.548 272.167 123.608 272.167 C 121.128 272.167 118.922 271.946 116.988 271.504 C 115.053 271.062 113.425 270.422 112.102 269.583 C 110.78 268.745 109.771 267.719 109.077 266.507 C 108.383 265.295 108.036 263.923 108.036 262.391 C 108.036 260.97 108.386 259.651 109.086 258.433 C 109.785 257.217 110.777 256.16 112.061 255.262 C 113.345 254.364 114.896 253.662 116.714 253.156 C 118.533 252.65 120.561 252.397 122.799 252.397 C 124.86 252.397 126.747 252.628 128.461 253.088 C 130.174 253.548 131.646 254.23 132.875 255.132 C 134.104 256.034 135.057 257.146 135.735 258.468 C 136.413 259.79 136.752 261.312 136.752 263.034 L 136.752 264.292 L 114.367 264.292 C 114.566 264.885 114.893 265.427 115.35 265.919 C 115.808 266.411 116.428 266.831 117.21 267.177 C 117.993 267.523 118.955 267.792 120.095 267.983 C 121.236 268.175 122.6 268.27 124.187 268.27 C 125.312 268.27 126.414 268.213 127.493 268.099 C 128.573 267.986 129.582 267.836 130.519 267.648 C 131.455 267.462 132.301 267.254 133.057 267.026 C 133.811 266.798 134.42 266.571 134.884 266.343 L 134.884 270.731 Z M 130.652 260.573 C 130.596 260.109 130.428 259.628 130.147 259.131 C 129.866 258.635 129.422 258.186 128.816 257.784 C 128.21 257.383 127.416 257.053 126.435 256.793 C 125.455 256.533 124.232 256.403 122.765 256.403 C 121.388 256.403 120.197 256.545 119.194 256.827 C 118.192 257.11 117.351 257.461 116.673 257.88 C 115.995 258.3 115.469 258.751 115.094 259.233 C 114.72 259.717 114.478 260.163 114.367 260.573 L 130.652 260.573 Z M 164.214 252.876 L 170.017 265.919 L 176.299 252.876 L 182.664 252.876 L 173.538 271.661 L 166.727 271.661 L 160.792 259.028 L 154.873 271.661 L 148.062 271.661 L 138.92 252.876 L 145.301 252.876 L 151.451 265.645 L 157.386 252.876 L 164.214 252.876 Z M 221.355 252.876 L 227.158 265.919 L 233.441 252.876 L 239.805 252.876 L 230.679 271.661 L 223.868 271.661 L 217.933 259.028 L 212.015 271.661 L 205.204 271.661 L 196.061 252.876 L 202.443 252.876 L 208.593 265.645 L 214.528 252.876 L 221.355 252.876 Z M 268.859 270.731 C 266.997 271.242 265.137 271.609 263.279 271.832 C 261.422 272.056 259.524 272.167 257.584 272.167 C 255.104 272.167 252.897 271.946 250.963 271.504 C 249.029 271.062 247.4 270.422 246.077 269.583 C 244.755 268.745 243.747 267.719 243.052 266.507 C 242.358 265.295 242.011 263.923 242.011 262.391 C 242.011 260.97 242.361 259.651 243.06 258.433 C 243.76 257.217 244.752 256.16 246.036 255.262 C 247.32 254.364 248.872 253.662 250.69 253.156 C 252.509 252.65 254.537 252.397 256.774 252.397 C 258.835 252.397 260.723 252.628 262.437 253.088 C 264.15 253.548 265.622 254.23 266.85 255.132 C 268.079 256.034 269.032 257.146 269.71 258.468 C 270.388 259.79 270.727 261.312 270.727 263.034 L 270.727 264.292 L 248.342 264.292 C 248.54 264.885 248.869 265.427 249.326 265.919 C 249.784 266.411 250.403 266.831 251.186 267.177 C 251.969 267.523 252.931 267.792 254.071 267.983 C 255.212 268.175 256.576 268.27 258.162 268.27 C 259.287 268.27 260.389 268.213 261.469 268.099 C 262.55 267.986 263.558 267.836 264.495 267.648 C 265.431 267.462 266.277 267.254 267.032 267.026 C 267.787 266.798 268.396 266.571 268.859 266.343 L 268.859 270.731 Z M 264.627 260.573 C 264.572 260.109 264.404 259.628 264.122 259.131 C 263.842 258.635 263.398 258.186 262.792 257.784 C 262.186 257.383 261.392 257.053 260.411 256.793 C 259.43 256.533 258.207 256.403 256.741 256.403 C 255.364 256.403 254.173 256.545 253.171 256.827 C 252.167 257.11 251.326 257.461 250.649 257.88 C 249.971 258.3 249.445 258.751 249.07 259.233 C 248.695 259.717 248.453 260.163 248.342 260.573 L 264.627 260.573 Z M 302.204 266.479 C 302.204 267.209 302.088 267.842 301.857 268.38 C 301.625 268.918 301.303 269.38 300.889 269.767 C 300.476 270.155 299.98 270.47 299.402 270.711 C 298.823 270.953 298.184 271.144 297.484 271.285 C 296.784 271.427 296.037 271.525 295.244 271.579 C 294.45 271.634 293.629 271.661 292.78 271.661 L 276.298 271.661 L 276.298 252.876 L 292.483 252.876 C 293.133 252.876 293.786 252.899 294.442 252.944 C 295.097 252.99 295.723 253.075 296.319 253.197 C 296.913 253.321 297.467 253.492 297.98 253.71 C 298.492 253.929 298.938 254.216 299.319 254.571 C 299.699 254.927 299.997 255.355 300.211 255.856 C 300.426 256.358 300.534 256.95 300.534 257.634 C 300.534 258.856 300.17 259.824 299.443 260.539 C 298.715 261.255 297.569 261.731 296.004 261.968 C 297.106 262.032 298.051 262.171 298.84 262.385 C 299.627 262.599 300.269 262.891 300.765 263.26 C 301.261 263.629 301.625 264.08 301.857 264.613 C 302.088 265.147 302.204 265.769 302.204 266.479 Z M 294.549 258.44 C 294.549 258.204 294.505 257.978 294.416 257.764 C 294.329 257.55 294.169 257.36 293.938 257.196 C 293.706 257.032 293.392 256.9 292.996 256.8 C 292.598 256.7 292.091 256.649 291.474 256.649 L 282.431 256.649 L 282.431 260.177 L 291.474 260.177 C 292.091 260.177 292.598 260.132 292.996 260.04 C 293.392 259.949 293.706 259.826 293.938 259.671 C 294.169 259.516 294.329 259.331 294.416 259.117 C 294.505 258.903 294.549 258.678 294.549 258.44 Z M 295.971 265.891 C 295.971 265.463 295.883 265.119 295.707 264.859 C 295.53 264.6 295.254 264.4 294.88 264.258 C 294.505 264.117 294.02 264.023 293.425 263.977 C 292.83 263.932 292.119 263.909 291.292 263.909 L 282.431 263.909 L 282.431 267.888 L 291.292 267.888 C 292.119 267.888 292.83 267.865 293.425 267.819 C 294.02 267.774 294.505 267.678 294.88 267.532 C 295.254 267.386 295.53 267.184 295.707 266.924 C 295.883 266.664 295.971 266.32 295.971 265.891 Z M 328.717 258.167 C 328.287 257.994 327.72 257.798 327.014 257.579 C 326.309 257.361 325.509 257.153 324.616 256.957 C 323.724 256.761 322.754 256.597 321.707 256.465 C 320.66 256.333 319.585 256.266 318.483 256.266 C 317.601 256.266 316.849 256.289 316.227 256.335 C 315.604 256.381 315.08 256.44 314.656 256.513 C 314.231 256.586 313.895 256.67 313.648 256.765 C 313.399 256.861 313.209 256.959 313.077 257.059 C 312.945 257.16 312.859 257.26 312.821 257.36 C 312.782 257.461 312.762 257.552 312.762 257.634 C 312.762 257.908 312.928 258.147 313.259 258.351 C 313.59 258.557 314.042 258.739 314.615 258.898 C 315.188 259.058 315.855 259.209 316.615 259.349 C 317.375 259.491 318.183 259.637 319.037 259.787 C 319.891 259.938 320.772 260.102 321.682 260.279 C 322.591 260.457 323.473 260.665 324.327 260.901 C 325.181 261.139 325.988 261.414 326.749 261.728 C 327.51 262.043 328.176 262.41 328.749 262.829 C 329.323 263.249 329.774 263.732 330.105 264.278 C 330.435 264.826 330.601 265.45 330.601 266.151 C 330.601 267.054 330.408 267.829 330.023 268.475 C 329.637 269.123 329.121 269.67 328.476 270.116 C 327.832 270.563 327.085 270.921 326.237 271.189 C 325.388 271.459 324.498 271.666 323.567 271.811 C 322.636 271.957 321.693 272.053 320.74 272.099 C 319.786 272.145 318.879 272.167 318.02 272.167 C 315.772 272.167 313.692 272.015 311.779 271.709 C 309.867 271.404 308.178 271.023 306.712 270.567 L 306.712 266.083 C 308.222 266.776 309.944 267.318 311.879 267.71 C 313.812 268.102 315.882 268.298 318.087 268.298 C 319.387 268.298 320.448 268.241 321.269 268.127 C 322.09 268.013 322.732 267.867 323.194 267.689 C 323.658 267.512 323.972 267.318 324.137 267.108 C 324.303 266.899 324.385 266.699 324.385 266.507 C 324.385 266.207 324.22 265.945 323.89 265.721 C 323.558 265.498 323.106 265.302 322.533 265.133 C 321.96 264.965 321.293 264.81 320.533 264.668 C 319.773 264.527 318.965 264.386 318.111 264.244 C 317.257 264.103 316.378 263.95 315.475 263.786 C 314.57 263.622 313.691 263.429 312.837 263.205 C 311.983 262.982 311.176 262.722 310.415 262.426 C 309.655 262.13 308.989 261.779 308.415 261.373 C 307.842 260.968 307.39 260.499 307.06 259.965 C 306.729 259.432 306.563 258.814 306.563 258.112 C 306.563 257.283 306.739 256.568 307.093 255.966 C 307.445 255.364 307.922 254.852 308.523 254.428 C 309.124 254.004 309.818 253.66 310.605 253.395 C 311.394 253.131 312.223 252.926 313.094 252.78 C 313.964 252.634 314.846 252.534 315.738 252.479 C 316.632 252.425 317.48 252.397 318.285 252.397 C 319.167 252.397 320.073 252.434 321.004 252.507 C 321.935 252.58 322.853 252.682 323.757 252.814 C 324.66 252.947 325.534 253.1 326.377 253.272 C 327.22 253.446 328 253.628 328.717 253.819 L 328.717 258.167 Z M 336.392 271.661 L 336.392 252.876 L 342.525 252.876 L 342.525 271.661 L 336.392 271.661 Z M 362.359 256.964 L 362.359 271.661 L 356.226 271.661 L 356.226 256.964 L 346.589 256.964 L 346.589 252.876 L 372.015 252.876 L 372.015 256.964 L 362.359 256.964 Z M 401.392 270.731 C 399.53 271.242 397.67 271.609 395.813 271.832 C 393.956 272.056 392.057 272.167 390.118 272.167 C 387.638 272.167 385.431 271.946 383.496 271.504 C 381.562 271.062 379.934 270.422 378.611 269.583 C 377.289 268.745 376.28 267.719 375.585 266.507 C 374.891 265.295 374.544 263.923 374.544 262.391 C 374.544 260.97 374.894 259.651 375.594 258.433 C 376.294 257.217 377.286 256.16 378.57 255.262 C 379.854 254.364 381.405 253.662 383.224 253.156 C 385.043 252.65 387.07 252.397 389.307 252.397 C 391.369 252.397 393.256 252.628 394.97 253.088 C 396.684 253.548 398.155 254.23 399.384 255.132 C 400.612 256.034 401.566 257.146 402.243 258.468 C 402.921 259.79 403.26 261.312 403.26 263.034 L 403.26 264.292 L 380.876 264.292 C 381.074 264.885 381.402 265.427 381.86 265.919 C 382.317 266.411 382.937 266.831 383.72 267.177 C 384.502 267.523 385.464 267.792 386.605 267.983 C 387.746 268.175 389.109 268.27 390.696 268.27 C 391.82 268.27 392.923 268.213 394.003 268.099 C 395.083 267.986 396.091 267.836 397.028 267.648 C 397.965 267.462 398.811 267.254 399.565 267.026 C 400.32 266.798 400.929 266.571 401.392 266.343 L 401.392 270.731 Z M 397.16 260.573 C 397.105 260.109 396.937 259.628 396.656 259.131 C 396.375 258.635 395.932 258.186 395.326 257.784 C 394.719 257.383 393.926 257.053 392.945 256.793 C 391.964 256.533 390.74 256.403 389.275 256.403 C 387.897 256.403 386.707 256.545 385.704 256.827 C 384.7 257.11 383.86 257.461 383.183 257.88 C 382.505 258.3 381.978 258.751 381.604 259.233 C 381.229 259.717 380.986 260.163 380.876 260.573 L 397.16 260.573 Z M 425.201 258.03 C 425.201 258.769 425.055 259.418 424.762 259.978 C 424.471 260.539 424.085 261.031 423.605 261.455 C 423.126 261.879 422.578 262.237 421.961 262.528 C 421.343 262.82 420.704 263.069 420.043 263.273 C 419.382 263.479 418.723 263.643 418.067 263.765 C 417.412 263.889 416.814 263.991 416.274 264.073 L 416.274 265.495 L 410.339 265.495 L 410.339 261.243 C 411.078 261.225 411.805 261.187 412.521 261.127 C 413.237 261.068 413.915 260.988 414.554 260.888 C 415.194 260.788 415.786 260.662 416.332 260.512 C 416.877 260.362 417.348 260.186 417.745 259.985 C 418.142 259.785 418.45 259.559 418.671 259.308 C 418.891 259.058 419.002 258.778 419.002 258.468 C 419.002 258.213 418.936 257.969 418.804 257.736 C 418.671 257.504 418.434 257.299 418.093 257.121 C 417.751 256.943 417.288 256.802 416.703 256.697 C 416.12 256.593 415.376 256.54 414.472 256.54 C 413.822 256.54 413.144 256.584 412.438 256.67 C 411.733 256.757 411.047 256.871 410.38 257.012 C 409.714 257.154 409.082 257.315 408.487 257.497 C 407.892 257.679 407.379 257.866 406.95 258.057 L 406.95 253.409 C 407.346 253.3 407.848 253.193 408.454 253.088 C 409.06 252.984 409.716 252.89 410.421 252.807 C 411.127 252.725 411.851 252.659 412.595 252.609 C 413.34 252.559 414.053 252.534 414.736 252.534 C 416.224 252.534 417.604 252.637 418.877 252.842 C 420.15 253.047 421.255 253.373 422.192 253.819 C 423.128 254.266 423.864 254.836 424.399 255.528 C 424.934 256.221 425.201 257.055 425.201 258.03 Z M 410.339 271.661 L 410.339 267.3 L 416.274 267.3 L 416.274 271.661 L 410.339 271.661 Z" style="fill: rgb(244, 244, 244); stroke-width: 1.5px; white-space: pre; stroke: url(#gradient-2);"/>
</svg>