<svg xmlns="http://www.w3.org/2000/svg" width="20" height="20" xmlns:v="https://vecta.io/nano"><path d="M17 1H3c-1.1 0-2 .9-2 2v14c0 1.101.9 2 2 2h14c1.1 0 2-.899 2-2V3c0-1.1-.9-2-2-2zM9.984 15.523a5.54 5.54 0 0 0 5.538-5.539c0-.338-.043-.664-.103-.984H17v7.216a.69.69 0 0 1-.203.489.69.69 0 0 1-.49.201H3.693a.69.69 0 0 1-.49-.201.69.69 0 0 1-.203-.489V9h1.549c-.061.32-.104.646-.104.984a5.54 5.54 0 0 0 5.539 5.539h0zM6.523 9.984a3.46 3.46 0 0 1 1.014-2.447 3.46 3.46 0 0 1 2.447-1.014 3.46 3.46 0 0 1 2.447 1.014 3.46 3.46 0 0 1 1.014 2.447 3.46 3.46 0 0 1-3.461 3.461 3.46 3.46 0 0 1-3.461-3.461h0zM16.307 6h-1.615c-.183-.001-.359-.074-.489-.203s-.203-.305-.203-.489V3.691A.69.69 0 0 1 14.691 3h1.615a.69.69 0 0 1 .694.691v1.616c0 .381-.31.693-.693.693z"/></svg>