<svg xmlns="http://www.w3.org/2000/svg" width="31" height="31" fill="none" xmlns:v="https://vecta.io/nano"><path d="M6.889 3.444c0 1.829-1.223 3.403-3.446 3.403C1.35 6.848 0 5.363 0 3.534 0 1.657 1.309 0 3.444 0s3.403 1.567 3.444 3.444zM0 31V8.611h6.889V31H0zm10.333-14.735l-.176-6.805h6.19l.307 2.967h.131c.871-1.397 3.007-3.444 6.582-3.444 4.361 0 7.633 2.919 7.633 9.2V31h-6.889V19.184c0-2.745-1.045-4.839-3.444-4.839-1.829 0-2.745 1.481-3.226 2.702-.176.437-.219 1.047-.219 1.659V31h-6.889V16.265z" fill="#f4f4f4"/></svg>