<svg xmlns="http://www.w3.org/2000/svg" width="38" height="31" fill="none" xmlns:v="https://vecta.io/nano"><path d="M34.109 7.717l.023 1.012C34.132 19.074 26.29 31 11.951 31 7.546 31 3.451 29.704 0 27.482a15.59 15.59 0 0 0 6.091-.466c1.98-.556 3.832-1.498 5.449-2.772-1.626-.031-3.203-.571-4.508-1.545s-2.275-2.334-2.774-3.889c1.169.22 2.372.173 3.521-.135a7.8 7.8 0 0 1-4.491-2.719c-1.14-1.399-1.762-3.151-1.763-4.958v-.097c1.083.604 2.293.941 3.532.981-1.652-1.106-2.822-2.803-3.27-4.746s-.141-3.983.858-5.706c1.957 2.418 4.4 4.396 7.168 5.806s5.801 2.218 8.901 2.374c-.134-.585-.201-1.184-.2-1.785a7.85 7.85 0 0 1 .593-2.994c.392-.949.966-1.812 1.69-2.538A7.79 7.79 0 0 1 23.326.595C24.272.202 25.285 0 26.309 0a7.76 7.76 0 0 1 3.101.641c.979.425 1.861 1.047 2.59 1.828 1.745-.347 3.419-.989 4.95-1.899a7.85 7.85 0 0 1-3.428 4.329C35.068 4.715 36.577 4.3 38 3.668c-1.045 1.572-2.363 2.944-3.891 4.049z" fill="url(#A)"/><defs><linearGradient id="A" x1="0" y1="15.5" x2="38" y2="15.5" gradientUnits="userSpaceOnUse"><stop stop-color="#1d176c"/><stop offset="1" stop-color="#7118b6"/></linearGradient></defs></svg>