<?xml version="1.0" encoding="utf-8"?>
<svg width="38" height="31" viewBox="0 0 38 31" fill="none" xmlns="http://www.w3.org/2000/svg">
  <path d="M34.1091 7.71683C34.1256 8.05271 34.1318 8.39273 34.1318 8.72861C34.1318 19.0744 26.2902 31 11.9514 31C7.5463 31 3.45098 29.7042 0 27.4816C2.04121 27.7294 4.11106 27.5709 6.09123 27.0153C8.0714 26.4596 9.92309 25.5176 11.5404 24.2431C9.9139 24.2122 8.33764 23.6719 7.03202 22.6976C5.7264 21.7233 4.75669 20.3637 4.25848 18.809C5.42752 19.0285 6.63067 18.9824 7.77967 18.6742C6.01518 18.315 4.42865 17.3544 3.28895 15.9552C2.14926 14.556 1.52649 12.8043 1.5262 10.9968V10.8994C2.60878 11.5039 3.81955 11.8401 5.05772 11.88C3.40528 10.7741 2.23555 9.07675 1.78727 7.13445C1.339 5.19215 1.64597 3.15132 2.64554 1.42851C4.60293 3.84694 7.04518 5.82495 9.81366 7.23407C12.5821 8.6432 15.6149 9.45191 18.715 9.60769C18.5809 9.02222 18.5137 8.42332 18.5147 7.82257C18.5147 6.79513 18.7163 5.77774 19.108 4.82853C19.4997 3.87932 20.0739 3.01687 20.7976 2.29045C21.5214 1.56403 22.3807 0.987871 23.3263 0.594873C24.2719 0.201874 25.2854 -0.000261921 26.3088 1.03952e-05C27.3754 -0.00173586 28.431 0.216546 29.4101 0.641315C30.3892 1.06608 31.2709 1.68828 32.0005 2.46931C33.7459 2.12244 35.4199 1.48025 36.9509 0.570168C36.3686 2.38266 35.1503 3.92108 33.5226 4.89922C35.0679 4.71531 36.5771 4.30019 38 3.66768C36.9547 5.24015 35.6369 6.61159 34.1091 7.71683Z" style="fill: rgb(4, 4, 4);"/>
</svg>